<svg width="48" height="48" viewBox="0 0 48 48" fill="none" xmlns="http://www.w3.org/2000/svg">
<rect width="48" height="48" rx="8" fill="#E8EDF2"/>
<g clip-path="url(#clip0_2001_326)">
<path fill-rule="evenodd" clip-rule="evenodd" d="M34.125 18.5062C33.8373 18.1833 33.425 17.999 32.9925 18H28.5C28.5 15.5147 26.4853 13.5 24 13.5C21.5147 13.5 19.5 15.5147 19.5 18H15.0075C14.5776 18.0012 14.1685 18.1853 13.8825 18.5062C13.5989 18.8261 13.4652 19.2517 13.515 19.6762L14.8519 30.9263C14.9417 31.6852 15.5877 32.2553 16.3519 32.25H31.6566C32.4208 32.2553 33.0668 31.6852 33.1566 30.9263L34.4934 19.6762C34.543 19.2516 34.409 18.8259 34.125 18.5062ZM24 15C25.6569 15 27 16.3431 27 18H21C21 16.3431 22.3431 15 24 15ZM31.665 30.75C31.6623 30.751 31.6593 30.751 31.6566 30.75H16.3359L15.0075 19.5H33L31.665 30.75Z" fill="#0D171C"/>
</g>
<defs>
<clipPath id="clip0_2001_326">
<rect width="24" height="24" fill="white" transform="translate(12 12)"/>
</clipPath>
</defs>
</svg>
