<svg width="48" height="48" viewBox="0 0 48 48" fill="none" xmlns="http://www.w3.org/2000/svg">
<rect width="48" height="48" rx="8" fill="#E8EDF2"/>
<g clip-path="url(#clip0_2001_356)">
<path fill-rule="evenodd" clip-rule="evenodd" d="M34.5 22.5H31.8103L27.75 18.4397C27.4697 18.1571 27.0877 17.9987 26.6897 18H16.1512C15.6509 18.0009 15.1839 18.2513 14.9062 18.6675L12.1256 22.8337C12.0439 22.9572 12.0002 23.1019 12 23.25V27.75C12 28.5784 12.6716 29.25 13.5 29.25H15.0938C15.4336 30.5774 16.6297 31.5059 18 31.5059C19.3703 31.5059 20.5664 30.5774 20.9062 29.25H27.0938C27.4336 30.5774 28.6297 31.5059 30 31.5059C31.3703 31.5059 32.5664 30.5774 32.9062 29.25H34.5C35.3284 29.25 36 28.5784 36 27.75V24C36 23.1716 35.3284 22.5 34.5 22.5ZM16.1512 19.5H26.6897L29.6897 22.5H14.1562L16.1512 19.5ZM18 30C17.1716 30 16.5 29.3284 16.5 28.5C16.5 27.6716 17.1716 27 18 27C18.8284 27 19.5 27.6716 19.5 28.5C19.5 29.3284 18.8284 30 18 30ZM30 30C29.1716 30 28.5 29.3284 28.5 28.5C28.5 27.6716 29.1716 27 30 27C30.8284 27 31.5 27.6716 31.5 28.5C31.5 29.3284 30.8284 30 30 30ZM34.5 27.75H32.9062C32.5664 26.4226 31.3703 25.4941 30 25.4941C28.6297 25.4941 27.4336 26.4226 27.0938 27.75H20.9062C20.5664 26.4226 19.3703 25.4941 18 25.4941C16.6297 25.4941 15.4336 26.4226 15.0938 27.75H13.5V24H34.5V27.75Z" fill="#0D171C"/>
</g>
<defs>
<clipPath id="clip0_2001_356">
<rect width="24" height="24" fill="white" transform="translate(12 12)"/>
</clipPath>
</defs>
</svg>
