<svg width="48" height="48" viewBox="0 0 48 48" fill="none" xmlns="http://www.w3.org/2000/svg">
<rect width="48" height="48" rx="8" fill="#E8EDF2"/>
<g clip-path="url(#clip0_2001_366)">
<path fill-rule="evenodd" clip-rule="evenodd" d="M30.75 27.75C30.7474 30.2342 28.7342 32.2474 26.25 32.25H24.75V33.75C24.75 34.1642 24.4142 34.5 24 34.5C23.5858 34.5 23.25 34.1642 23.25 33.75V32.25H21.75C19.2658 32.2474 17.2526 30.2342 17.25 27.75C17.25 27.3358 17.5858 27 18 27C18.4142 27 18.75 27.3358 18.75 27.75C18.75 29.4069 20.0931 30.75 21.75 30.75H26.25C27.9069 30.75 29.25 29.4069 29.25 27.75C29.25 26.0931 27.9069 24.75 26.25 24.75H22.5C20.0147 24.75 18 22.7353 18 20.25C18 17.7647 20.0147 15.75 22.5 15.75H23.25V14.25C23.25 13.8358 23.5858 13.5 24 13.5C24.4142 13.5 24.75 13.8358 24.75 14.25V15.75H25.5C27.9842 15.7526 29.9974 17.7658 30 20.25C30 20.6642 29.6642 21 29.25 21C28.8358 21 28.5 20.6642 28.5 20.25C28.5 18.5931 27.1569 17.25 25.5 17.25H22.5C20.8431 17.25 19.5 18.5931 19.5 20.25C19.5 21.9069 20.8431 23.25 22.5 23.25H26.25C28.7342 23.2526 30.7474 25.2658 30.75 27.75Z" fill="#0D171C"/>
</g>
<defs>
<clipPath id="clip0_2001_366">
<rect width="24" height="24" fill="white" transform="translate(12 12)"/>
</clipPath>
</defs>
</svg>
