<svg width="48" height="48" viewBox="0 0 48 48" fill="none" xmlns="http://www.w3.org/2000/svg">
<rect width="48" height="48" rx="8" fill="#E8EDF2"/>
<g clip-path="url(#clip0_2001_416)">
<path fill-rule="evenodd" clip-rule="evenodd" d="M25.125 24C25.125 24.6213 24.6213 25.125 24 25.125C23.3787 25.125 22.875 24.6213 22.875 24C22.875 23.3787 23.3787 22.875 24 22.875C24.6213 22.875 25.125 23.3787 25.125 24ZM30.375 22.875C29.7537 22.875 29.25 23.3787 29.25 24C29.25 24.6213 29.7537 25.125 30.375 25.125C30.9963 25.125 31.5 24.6213 31.5 24C31.5 23.3787 30.9963 22.875 30.375 22.875ZM17.625 22.875C17.0037 22.875 16.5 23.3787 16.5 24C16.5 24.6213 17.0037 25.125 17.625 25.125C18.2463 25.125 18.75 24.6213 18.75 24C18.75 23.3787 18.2463 22.875 17.625 22.875Z" fill="#0D171C"/>
</g>
<defs>
<clipPath id="clip0_2001_416">
<rect width="24" height="24" fill="white" transform="translate(12 12)"/>
</clipPath>
</defs>
</svg>
