<svg width="96" height="24" viewBox="0 0 96 24" fill="none" xmlns="http://www.w3.org/2000/svg">
<g clip-path="url(#clip0_2001_218)">
<path fill-rule="evenodd" clip-rule="evenodd" d="M8 5.33333C8.59393 8.7391 11.2609 11.4061 14.6667 12C11.2609 12.5939 8.59393 15.2609 8 18.6667C7.40607 15.2609 4.7391 12.5939 1.33333 12C4.7391 11.4061 7.40607 8.7391 8 5.33333Z" fill="#0D171C"/>
</g>
<path d="M40.2393 9.17401C40.1882 8.65838 39.9688 8.25781 39.581 7.9723C39.1932 7.68679 38.6669 7.54403 38.0021 7.54403C37.5504 7.54403 37.169 7.60795 36.858 7.7358C36.5469 7.85937 36.3082 8.03196 36.142 8.25355C35.9801 8.47514 35.8991 8.72656 35.8991 9.00781C35.8906 9.24219 35.9396 9.44673 36.0462 9.62145C36.157 9.79616 36.3082 9.94744 36.5 10.0753C36.6918 10.1989 36.9134 10.3075 37.1648 10.4013C37.4162 10.4908 37.6847 10.5675 37.9702 10.6314L39.1463 10.9126C39.7173 11.0405 40.2415 11.2109 40.7188 11.424C41.196 11.6371 41.6094 11.8991 41.9588 12.2102C42.3082 12.5213 42.5788 12.8878 42.7706 13.3097C42.9666 13.7315 43.0668 14.2152 43.071 14.7607C43.0668 15.5618 42.8622 16.2564 42.4574 16.8445C42.0568 17.4283 41.4773 17.8821 40.7188 18.206C39.9645 18.5256 39.0547 18.6854 37.9893 18.6854C36.9325 18.6854 36.0121 18.5234 35.228 18.1996C34.4482 17.8757 33.8388 17.3963 33.3999 16.7614C32.9652 16.1222 32.7372 15.3317 32.7159 14.3899H35.3942C35.424 14.8288 35.5497 15.1953 35.7713 15.4893C35.9972 15.7791 36.2976 15.9986 36.6726 16.1477C37.0518 16.2926 37.4801 16.3651 37.9574 16.3651C38.4261 16.3651 38.8331 16.2969 39.1783 16.1605C39.5277 16.0241 39.7983 15.8345 39.9901 15.5916C40.1818 15.3487 40.2777 15.0696 40.2777 14.7543C40.2777 14.4602 40.1903 14.2131 40.0156 14.0128C39.8452 13.8125 39.5938 13.642 39.2614 13.5014C38.9332 13.3608 38.5305 13.233 38.0533 13.1179L36.6278 12.7599C35.5241 12.4915 34.6527 12.0717 34.0135 11.5007C33.3743 10.9297 33.0568 10.1605 33.0611 9.19318C33.0568 8.40057 33.2678 7.7081 33.6939 7.11577C34.1243 6.52344 34.7145 6.06108 35.4645 5.72869C36.2145 5.39631 37.0668 5.23011 38.0213 5.23011C38.9929 5.23011 39.8409 5.39631 40.5653 5.72869C41.294 6.06108 41.8608 6.52344 42.2656 7.11577C42.6705 7.7081 42.8793 8.39418 42.892 9.17401H40.2393ZM44.8816 22.1818V8.68182H47.5662V10.331H47.6877C47.807 10.0668 47.9796 9.7983 48.2054 9.52557C48.4355 9.24858 48.7338 9.01847 49.1003 8.83523C49.4711 8.64773 49.9313 8.55398 50.481 8.55398C51.1969 8.55398 51.8574 8.74148 52.4625 9.11648C53.0676 9.48722 53.5513 10.0476 53.9135 10.7976C54.2757 11.5433 54.4569 12.4787 54.4569 13.6037C54.4569 14.6989 54.28 15.6236 53.9263 16.3778C53.5769 17.1278 53.0996 17.6967 52.4945 18.0845C51.8936 18.468 51.2203 18.6598 50.4746 18.6598C49.9462 18.6598 49.4966 18.5724 49.1259 18.3977C48.7594 18.223 48.459 18.0036 48.2246 17.7393C47.9902 17.4709 47.8113 17.2003 47.6877 16.9276H47.6046V22.1818H44.8816ZM47.5471 13.5909C47.5471 14.1747 47.628 14.6839 47.79 15.1186C47.9519 15.5533 48.1863 15.892 48.4931 16.1349C48.7999 16.3736 49.1728 16.4929 49.6117 16.4929C50.0549 16.4929 50.4299 16.3714 50.7367 16.1286C51.0435 15.8814 51.2757 15.5405 51.4334 15.1058C51.5953 14.6669 51.6763 14.1619 51.6763 13.5909C51.6763 13.0241 51.5975 12.5256 51.4398 12.0952C51.2821 11.6648 51.0499 11.3281 50.7431 11.0852C50.4363 10.8423 50.0591 10.7209 49.6117 10.7209C49.1685 10.7209 48.7935 10.8381 48.4867 11.0724C48.1841 11.3068 47.9519 11.6392 47.79 12.0696C47.628 12.5 47.5471 13.0071 47.5471 13.5909ZM60.7466 18.6918C59.7367 18.6918 58.8674 18.4872 58.1387 18.0781C57.4142 17.6648 56.856 17.081 56.464 16.3267C56.0719 15.5682 55.8759 14.6712 55.8759 13.6357C55.8759 12.6257 56.0719 11.7393 56.464 10.9766C56.856 10.2138 57.4078 9.61932 58.1195 9.19318C58.8354 8.76705 59.6749 8.55398 60.638 8.55398C61.2857 8.55398 61.8887 8.65838 62.4469 8.86719C63.0094 9.07173 63.4995 9.38068 63.9171 9.79403C64.339 10.2074 64.6671 10.7273 64.9015 11.3537C65.1358 11.9759 65.253 12.7045 65.253 13.5398V14.2876H56.9625V12.6001H62.6898C62.6898 12.2081 62.6046 11.8608 62.4341 11.5582C62.2637 11.2557 62.0272 11.0192 61.7246 10.8487C61.4263 10.674 61.079 10.5866 60.6827 10.5866C60.2694 10.5866 59.9029 10.6825 59.5833 10.8743C59.2679 11.0618 59.0208 11.3153 58.8418 11.6349C58.6628 11.9503 58.5712 12.3018 58.5669 12.6896V14.294C58.5669 14.7798 58.6564 15.1996 58.8354 15.5533C59.0186 15.907 59.2765 16.1797 59.6088 16.3714C59.9412 16.5632 60.3354 16.6591 60.7914 16.6591C61.0939 16.6591 61.3709 16.6165 61.6223 16.5312C61.8738 16.446 62.089 16.3182 62.2679 16.1477C62.4469 15.9773 62.5833 15.7685 62.677 15.5213L65.1955 15.6875C65.0676 16.2926 64.8056 16.821 64.4093 17.2727C64.0172 17.7202 63.5101 18.0696 62.888 18.321C62.2701 18.5682 61.5563 18.6918 60.7466 18.6918ZM69.753 12.8239V18.5H67.03V8.68182H69.6252V10.4141H69.7402C69.9576 9.84304 70.3219 9.39133 70.8333 9.05895C71.3446 8.7223 71.9647 8.55398 72.6934 8.55398C73.3752 8.55398 73.9696 8.70312 74.4767 9.00142C74.9838 9.29972 75.378 9.72585 75.6593 10.2798C75.9405 10.8295 76.0811 11.4858 76.0811 12.2486V18.5H73.3581V12.7344C73.3624 12.1335 73.209 11.6648 72.8979 11.3281C72.5868 10.9872 72.1586 10.8168 71.6131 10.8168C71.2466 10.8168 70.9228 10.8956 70.6415 11.0533C70.3645 11.2109 70.1472 11.4411 69.9895 11.7436C69.8361 12.0419 69.7573 12.402 69.753 12.8239ZM81.8452 18.6598C81.0994 18.6598 80.424 18.468 79.8189 18.0845C79.218 17.6967 78.7408 17.1278 78.3871 16.3778C78.0376 15.6236 77.8629 14.6989 77.8629 13.6037C77.8629 12.4787 78.044 11.5433 78.4062 10.7976C78.7685 10.0476 79.25 9.48722 79.8509 9.11648C80.456 8.74148 81.1186 8.55398 81.8388 8.55398C82.3885 8.55398 82.8466 8.64773 83.2131 8.83523C83.5838 9.01847 83.8821 9.24858 84.108 9.52557C84.3381 9.7983 84.5128 10.0668 84.6321 10.331H84.7152V5.40909H87.4318V18.5H84.7472V16.9276H84.6321C84.5043 17.2003 84.3232 17.4709 84.0888 17.7393C83.8587 18.0036 83.5582 18.223 83.1875 18.3977C82.821 18.5724 82.3736 18.6598 81.8452 18.6598ZM82.7081 16.4929C83.147 16.4929 83.5178 16.3736 83.8203 16.1349C84.1271 15.892 84.3615 15.5533 84.5234 15.1186C84.6896 14.6839 84.7727 14.1747 84.7727 13.5909C84.7727 13.0071 84.6918 12.5 84.5298 12.0696C84.3679 11.6392 84.1335 11.3068 83.8267 11.0724C83.5199 10.8381 83.147 10.7209 82.7081 10.7209C82.2607 10.7209 81.8835 10.8423 81.5767 11.0852C81.2699 11.3281 81.0376 11.6648 80.88 12.0952C80.7223 12.5256 80.6435 13.0241 80.6435 13.5909C80.6435 14.1619 80.7223 14.6669 80.88 15.1058C81.0419 15.5405 81.2741 15.8814 81.5767 16.1286C81.8835 16.3714 82.2607 16.4929 82.7081 16.4929ZM89.6706 18.5V8.68182H92.3105V10.3949H92.4128C92.5918 9.78551 92.8922 9.32528 93.3141 9.0142C93.736 8.69886 94.2218 8.54119 94.7715 8.54119C94.9078 8.54119 95.0549 8.54972 95.2125 8.56676C95.3702 8.58381 95.5087 8.60724 95.628 8.63707V11.0533C95.5002 11.0149 95.3233 10.9808 95.0975 10.951C94.8716 10.9212 94.665 10.9062 94.4775 10.9062C94.0769 10.9062 93.7189 10.9936 93.4036 11.1683C93.0925 11.3388 92.8453 11.5774 92.6621 11.8842C92.4831 12.1911 92.3936 12.5447 92.3936 12.9453V18.5H89.6706Z" fill="#0D171C"/>
<defs>
<clipPath id="clip0_2001_218">
<rect width="16" height="16" fill="white" transform="translate(0 4)"/>
</clipPath>
</defs>
</svg>
