<svg width="48" height="48" viewBox="0 0 48 48" fill="none" xmlns="http://www.w3.org/2000/svg">
<rect width="48" height="48" rx="8" fill="#E8EDF2"/>
<g clip-path="url(#clip0_2001_336)">
<path fill-rule="evenodd" clip-rule="evenodd" d="M33 21.75H32.2153C31.8248 17.5044 28.2635 14.2557 24 14.2557C19.7365 14.2557 16.1752 17.5044 15.7847 21.75H15C14.5858 21.75 14.25 22.0858 14.25 22.5C14.2567 26.1352 16.2786 29.4669 19.5 31.1513V31.5C19.5 32.3284 20.1716 33 21 33H27C27.8284 33 28.5 32.3284 28.5 31.5V31.1513C31.7214 29.4669 33.7433 26.1352 33.75 22.5C33.75 22.0858 33.4142 21.75 33 21.75ZM30.7069 21.75H25.8862C26.7955 20.3858 28.1712 19.4002 29.7553 18.9778C30.2733 19.8203 30.5982 20.767 30.7069 21.75ZM28.2638 17.2716C28.4356 17.4122 28.6003 17.5606 28.7578 17.7169C26.7613 18.4192 25.1114 19.8626 24.15 21.7481H21.3844C22.3448 19.056 24.8917 17.2563 27.75 17.25C27.9216 17.25 28.0931 17.2584 28.2638 17.2716ZM24 15.75C24.6018 15.7504 25.2009 15.8314 25.7812 15.9909C22.9046 16.7045 20.6283 18.9007 19.8122 21.75H17.2931C17.6783 18.3358 20.5641 15.7541 24 15.75ZM27.4369 30C27.1697 30.1228 26.9989 30.3903 27 30.6844V31.5H21V30.6844C21.0011 30.3903 20.8303 30.1228 20.5631 30C17.8788 28.7647 16.0565 26.1921 15.7819 23.25H32.2153C31.9412 26.1915 30.1201 28.764 27.4369 30Z" fill="#0D171C"/>
</g>
<defs>
<clipPath id="clip0_2001_336">
<rect width="24" height="24" fill="white" transform="translate(12 12)"/>
</clipPath>
</defs>
</svg>
