<svg width="48" height="48" viewBox="0 0 48 48" fill="none" xmlns="http://www.w3.org/2000/svg">
<rect width="48" height="48" rx="8" fill="#E8EDF2"/>
<g clip-path="url(#clip0_2001_376)">
<path fill-rule="evenodd" clip-rule="evenodd" d="M28.5 22.5H26.25C25.8358 22.5 25.5 22.1642 25.5 21.75C25.5 21.3358 25.8358 21 26.25 21H28.5C28.9142 21 29.25 21.3358 29.25 21.75C29.25 22.1642 28.9142 22.5 28.5 22.5ZM21.75 21H21V20.25C21 19.8358 20.6642 19.5 20.25 19.5C19.8358 19.5 19.5 19.8358 19.5 20.25V21H18.75C18.3358 21 18 21.3358 18 21.75C18 22.1642 18.3358 22.5 18.75 22.5H19.5V23.25C19.5 23.6642 19.8358 24 20.25 24C20.6642 24 21 23.6642 21 23.25V22.5H21.75C22.1642 22.5 22.5 22.1642 22.5 21.75C22.5 21.3358 22.1642 21 21.75 21ZM34.6388 30.8109C34.0666 31.628 33.1623 32.1501 32.1686 32.2371C31.1749 32.3241 30.1936 31.9671 29.4881 31.2619C29.4769 31.2506 29.4656 31.2394 29.4553 31.2272L25.7325 27H22.2638L18.5447 31.2272L18.5119 31.2619C17.8783 31.8941 17.02 32.2494 16.125 32.25C15.1276 32.2496 14.1815 31.8081 13.5405 31.044C12.8995 30.2798 12.6293 29.2713 12.8025 28.2891C12.802 28.2847 12.802 28.2803 12.8025 28.2759L14.3372 20.3925C14.8087 17.7085 17.1396 15.7508 19.8647 15.75H28.125C30.8408 15.7543 33.1667 17.6959 33.6562 20.3672C33.6562 20.3728 33.6562 20.3784 33.6562 20.3841L35.1909 28.275C35.1914 28.2794 35.1914 28.2838 35.1909 28.2881C35.3514 29.1691 35.1525 30.0776 34.6388 30.8109ZM28.125 25.5C30.4032 25.5 32.25 23.6532 32.25 21.375C32.25 19.0968 30.4032 17.25 28.125 17.25H19.8647C17.8654 17.2518 16.1567 18.6901 15.8138 20.6597V20.6719L14.2781 28.5553C14.1389 29.3572 14.5328 30.1573 15.2532 30.5359C15.9737 30.9145 16.8561 30.7851 17.4375 30.2156L21.3675 25.7541C21.5098 25.5926 21.7147 25.5 21.93 25.5H28.125ZM33.7219 28.5553L32.9025 24.3366C31.8779 25.991 30.071 26.9984 28.125 27H27.7312L30.5625 30.2166C30.9955 30.6378 31.6043 30.8257 32.1994 30.7219C33.2169 30.5423 33.8973 29.5734 33.7209 28.5553H33.7219Z" fill="#0D171C"/>
</g>
<defs>
<clipPath id="clip0_2001_376">
<rect width="24" height="24" fill="white" transform="translate(12 12)"/>
</clipPath>
</defs>
</svg>
