<svg width="48" height="48" viewBox="0 0 48 48" fill="none" xmlns="http://www.w3.org/2000/svg">
<rect width="48" height="48" rx="8" fill="#E8EDF2"/>
<g clip-path="url(#clip0_2001_406)">
<path fill-rule="evenodd" clip-rule="evenodd" d="M35.6025 20.3381L24.3525 14.3381C24.1321 14.2208 23.8679 14.2208 23.6475 14.3381L12.3975 20.3381C12.153 20.4684 12.0002 20.7229 12.0002 21C12.0002 21.2771 12.153 21.5316 12.3975 21.6619L15 23.0503V27.5897C14.9992 27.9581 15.1348 28.3137 15.3806 28.5881C16.6087 29.9559 19.3603 32.25 24 32.25C25.5384 32.2627 27.0653 31.9841 28.5 31.4287V34.5C28.5 34.9142 28.8358 35.25 29.25 35.25C29.6642 35.25 30 34.9142 30 34.5V30.7041C30.978 30.1395 31.8618 29.4256 32.6194 28.5881C32.8652 28.3137 33.0008 27.9581 33 27.5897V23.0503L35.6025 21.6619C35.847 21.5316 35.9998 21.2771 35.9998 21C35.9998 20.7229 35.847 20.4684 35.6025 20.3381ZM24 30.75C19.9434 30.75 17.5575 28.7681 16.5 27.5897V23.85L23.6475 27.6619C23.8679 27.7792 24.1321 27.7792 24.3525 27.6619L28.5 25.4503V29.7947C27.3188 30.3459 25.83 30.75 24 30.75ZM31.5 27.5859C31.0504 28.0848 30.5474 28.5328 30 28.9219V24.6497L31.5 23.85V27.5859ZM29.625 23.1506L29.6044 23.1384L24.3544 20.3381C23.99 20.152 23.5436 20.2923 23.3512 20.6535C23.1589 21.0147 23.2916 21.4634 23.6494 21.6619L28.0312 24L24 26.1497L14.3438 21L24 15.8503L33.6562 21L29.625 23.1506Z" fill="#0D171C"/>
</g>
<defs>
<clipPath id="clip0_2001_406">
<rect width="24" height="24" fill="white" transform="translate(12 12)"/>
</clipPath>
</defs>
</svg>
