<svg width="48" height="48" viewBox="0 0 48 48" fill="none" xmlns="http://www.w3.org/2000/svg">
<rect width="48" height="48" rx="8" fill="#E8EDF2"/>
<g clip-path="url(#clip0_2001_386)">
<path fill-rule="evenodd" clip-rule="evenodd" d="M28.6875 15C26.7516 15 25.0566 15.8325 24 17.2397C22.9434 15.8325 21.2484 15 19.3125 15C16.1038 15.0036 13.5036 17.6038 13.5 20.8125C13.5 27.375 23.2303 32.6869 23.6447 32.9062C23.8665 33.0256 24.1335 33.0256 24.3553 32.9062C24.7697 32.6869 34.5 27.375 34.5 20.8125C34.4964 17.6038 31.8962 15.0036 28.6875 15ZM24 31.3875C22.2881 30.39 15 25.8459 15 20.8125C15.0031 18.4321 16.9321 16.5031 19.3125 16.5C21.1359 16.5 22.6669 17.4713 23.3062 19.0312C23.4218 19.3126 23.6959 19.4963 24 19.4963C24.3041 19.4963 24.5782 19.3126 24.6938 19.0312C25.3331 17.4684 26.8641 16.5 28.6875 16.5C31.0679 16.5031 32.9969 18.4321 33 20.8125C33 25.8384 25.71 30.3891 24 31.3875Z" fill="#0D171C"/>
</g>
<defs>
<clipPath id="clip0_2001_386">
<rect width="24" height="24" fill="white" transform="translate(12 12)"/>
</clipPath>
</defs>
</svg>
