<svg width="48" height="48" viewBox="0 0 48 48" fill="none" xmlns="http://www.w3.org/2000/svg">
<rect width="48" height="48" rx="8" fill="#E8EDF2"/>
<g clip-path="url(#clip0_2001_396)">
<path fill-rule="evenodd" clip-rule="evenodd" d="M35.25 32.25C35.25 32.6642 34.9142 33 34.5 33H21C20.5858 33 20.25 32.6642 20.25 32.25C20.25 31.8358 20.5858 31.5 21 31.5H34.5C34.9142 31.5 35.25 31.8358 35.25 32.25ZM32.7975 29.9719L16.2384 25.335C14.6215 24.8781 13.5037 23.4041 13.5 21.7238V16.5C13.5 16.0178 13.7317 15.565 14.1229 15.283C14.5141 15.0011 15.0169 14.9244 15.4744 15.0769L15.9872 15.2475C16.2051 15.3199 16.3778 15.4881 16.4559 15.7041L17.4497 18.4575L20.25 19.2553V16.5C20.25 16.0178 20.4817 15.565 20.8729 15.283C21.2641 15.0011 21.7669 14.9244 22.2244 15.0769L22.7372 15.2475C22.9425 15.3159 23.1083 15.4697 23.1919 15.6694L25.3013 20.6972L31.005 22.2909C32.6254 22.746 33.7464 24.2219 33.75 25.905V29.25C33.7499 29.4846 33.64 29.7057 33.453 29.8475C33.266 29.9892 33.0234 30.0352 32.7975 29.9719ZM32.25 25.905C32.2473 24.895 31.5743 24.0095 30.6019 23.7366L24.5484 22.0491C24.3275 21.9875 24.1469 21.8283 24.0581 21.6169L21.9375 16.5628L21.75 16.5V20.25C21.7502 20.4853 21.6399 20.707 21.4522 20.8489C21.2644 20.9908 21.021 21.0363 20.7947 20.9719L16.6697 19.7962C16.4373 19.7297 16.2513 19.5551 16.17 19.3275L15.1678 16.5553L15 16.5V21.7238C15.0025 22.7321 15.6732 23.6167 16.6434 23.8912L32.25 28.2609V25.905Z" fill="#0D171C"/>
</g>
<defs>
<clipPath id="clip0_2001_396">
<rect width="24" height="24" fill="white" transform="translate(12 12)"/>
</clipPath>
</defs>
</svg>
